# xmcd CD database file
#
# Track frame offsets:
#	300
#	17503
#	31128
#	43153
#	56541
#	71109
#	77242
#	87868
#	103442
#	118864
#	128294
#	152747
#	172841
#
# Disc length: 2431 seconds
#
# Revision: 0
# Processed by: cddbd v1.5.1PL2 Copyright (c) Steve Scherf et al.
# Submitted via: CDex 1.51
#
DISCID=a4097b0d
DTITLE=Amanda Mabro - Superwoman In The Making
DYEAR=2006
DGENRE=Jazz
TTITLE0=Superwoman  In The Making
TTITLE1=One Fine Man
TTITLE2=Lonely Day
TTITLE3=1000 Years
TTITLE4=Faulty Plans
TTITLE5=Intermission
TTITLE6=Tickle The Fancy
TTITLE7=Swing with Me
TTITLE8=Down To Earth
TTITLE9=Beautiful Songs
TTITLE10=Wink At The Moon
TTITLE11=Clouds Hang Over
TTITLE12=Carte Blanche
EXTD=YEAR: 2006
EXTT0=
EXTT1=
EXTT2=
EXTT3=
EXTT4=
EXTT5=
EXTT6=
EXTT7=
EXTT8=
EXTT9=
EXTT10=
EXTT11=
EXTT12=
PLAYORDER=
